# xmcd
#
# Track frame offsets: 
#        150
#        8604
#        24747
#        44394
#        55795
#        76953
#        92703
#        106742
#        116676
#        129724
#        147153
#        161513
#        175184
#        190853
#        208979
#        218748
#        227523
#        241218
#        258463
#        274223
#        285333
#        300301
#        315300
#        331392
#
# Disc length: 4604 seconds
#
# Revision: 1
# Processed by: cddbd v1.5.2PL0 Copyright (c) Steve Scherf et al.
# Submitted via: ExactAudioCopy v0.99pb4
#
DISCID=4411fa18
DTITLE=Lou Rawls - Black and Blue and Tobacco Road
DYEAR=2006
DGENRE=Blues
TTITLE0=Roll 'Em Pete
TTITLE1=I'd Rather Drink Muddy Water
TTITLE2=How Long, How Long Blues
TTITLE3=Everyday I Have the Blues
TTITLE4=St. James Infirmary
TTITLE5=(What Did I Do to Be So) Black and Blue
TTITLE6=Gloomy Sunday
TTITLE7=Kansas City
TTITLE8=Goin' to Chicago Blues
TTITLE9=Trouble in Mind
TTITLE10=World of Trouble
TTITLE11=Six Cold Feet of Ground
TTITLE12=Strange Fruit
TTITLE13=Tobacco Road
TTITLE14=Cotton Fields
TTITLE15=Rockin' Chair
TTITLE16=Stormy Weather
TTITLE17=Ol' Man River
TTITLE18=Blues for a Four-String Guitar
TTITLE19=St. Louis blues
TTITLE20=Georgia on My Mind
TTITLE21=Sentimental Journey
TTITLE22=Summertime
TTITLE23=When It's Sleepy Time Down South
EXTD=
EXTT0=
EXTT1=
EXTT2=
EXTT3=
EXTT4=
EXTT5=
EXTT6=
EXTT7=
EXTT8=
EXTT9=
EXTT10=
EXTT11=
EXTT12=
EXTT13=
EXTT14=
EXTT15=
EXTT16=
EXTT17=
EXTT18=
EXTT19=
EXTT20=
EXTT21=
EXTT22=
EXTT23=
PLAYORDER=
